<svg width="544" height="131" viewBox="0 0 544 131" fill="none" xmlns="http://www.w3.org/2000/svg">
<path d="M292 97H402.496L408 63L356.985 131L292 97Z" fill="#CBCBCB"/>
<path d="M21.744 26.016C24.48 26.016 26.688 26.28 28.368 26.808C30.096 27.288 31.776 27.984 33.408 28.896C33.936 29.184 34.392 29.424 34.776 29.616C35.208 29.808 35.568 29.904 35.856 29.904C36.288 29.904 36.624 29.664 36.864 29.184C37.104 28.656 37.296 27.84 37.44 26.736H39.096C38.856 30.192 38.736 36.048 38.736 44.304H37.08C36.888 41.568 36.264 38.952 35.208 36.456C34.152 33.96 32.712 31.92 30.888 30.336C29.064 28.752 26.952 27.96 24.552 27.96C22.344 27.96 20.568 28.56 19.224 29.76C17.88 30.912 17.208 32.544 17.208 34.656C17.208 36.288 17.568 37.704 18.288 38.904C19.008 40.104 20.064 41.28 21.456 42.432C22.848 43.536 25.128 45.192 28.296 47.4C28.584 47.544 28.848 47.712 29.088 47.904C29.376 48.096 29.64 48.288 29.88 48.48C32.52 50.304 34.632 51.936 36.216 53.376C37.8 54.768 39.072 56.4 40.032 58.272C41.04 60.144 41.544 62.304 41.544 64.752C41.544 67.872 40.656 70.512 38.88 72.672C37.152 74.784 34.8 76.368 31.824 77.424C28.848 78.48 25.56 79.008 21.96 79.008C19.032 79.008 16.584 78.768 14.616 78.288C12.696 77.808 10.896 77.16 9.216 76.344C8.16 75.672 7.344 75.336 6.768 75.336C6.336 75.336 6 75.6 5.76 76.128C5.52 76.608 5.328 77.4 5.184 78.504H3.528C3.72 75.24 3.816 68.28 3.816 57.624H5.472C5.808 63.336 7.008 67.968 9.072 71.52C11.136 75.072 14.304 76.848 18.576 76.848C21.216 76.848 23.304 76.224 24.84 74.976C26.424 73.728 27.216 72 27.216 69.792C27.216 67.056 26.352 64.728 24.624 62.808C22.944 60.84 20.304 58.656 16.704 56.256C13.824 54.336 11.52 52.656 9.792 51.216C8.064 49.776 6.648 48.12 5.544 46.248C4.44 44.328 3.888 42.12 3.888 39.624C3.888 36.6 4.704 34.08 6.336 32.064C7.968 30 10.128 28.488 12.816 27.528C15.552 26.52 18.528 26.016 21.744 26.016ZM68.1323 71.16C71.6363 71.16 74.5403 69.552 76.8443 66.336L78.0683 66.768C77.0123 70.128 75.2123 73.008 72.6683 75.408C70.1723 77.808 66.9563 79.008 63.0203 79.008C57.9803 79.008 53.9483 77.448 50.9243 74.328C47.9003 71.208 46.3883 66.216 46.3883 59.352C46.3883 52.776 48.0683 47.856 51.4283 44.592C54.8363 41.28 59.3243 39.624 64.8923 39.624C73.9643 39.624 78.5003 45 78.5003 55.752H59.9243C59.8763 56.328 59.8523 57.192 59.8523 58.344C59.8523 62.952 60.6443 66.24 62.2283 68.208C63.8603 70.176 65.8283 71.16 68.1323 71.16ZM64.3883 41.28C61.7003 41.28 60.1163 45.648 59.6363 54.384H67.9883C68.0363 50.544 67.7483 47.4 67.1243 44.952C66.5483 42.504 65.6363 41.28 64.3883 41.28ZM108.807 39.624C112.551 39.624 115.575 41.16 117.879 44.232C120.183 47.304 121.335 51.792 121.335 57.696C121.335 65.328 119.799 70.8 116.727 74.112C113.655 77.376 109.599 79.008 104.559 79.008C103.023 79.008 101.727 78.96 100.671 78.864C99.6632 78.768 98.7272 78.528 97.8632 78.144C96.0872 77.424 94.2392 77.064 92.3192 77.064C90.8792 77.064 89.5352 77.256 88.2872 77.64C87.0392 78.024 86.0792 78.528 85.4072 79.152L84.3992 78.432C84.7352 77.424 84.9032 76.104 84.9032 74.472V30.336C84.9032 28.128 84.5912 26.52 83.9672 25.512C83.3912 24.504 82.3592 24 80.8712 24V22.488C82.3592 22.632 83.8472 22.704 85.3352 22.704C90.3272 22.704 94.5032 22.368 97.8632 21.696V45.024C100.071 41.424 103.719 39.624 108.807 39.624ZM101.247 77.568C105.663 77.568 107.871 71.496 107.871 59.352C107.871 53.448 107.439 49.32 106.575 46.968C105.711 44.568 104.535 43.368 103.047 43.368C101.655 43.368 100.431 43.872 99.3752 44.88C98.3672 45.84 97.8632 47.064 97.8632 48.552V76.704C98.9672 77.28 100.095 77.568 101.247 77.568ZM134.481 78.504C131.409 78.504 129.081 77.688 127.497 76.056C125.961 74.376 125.193 72.288 125.193 69.792C125.193 67.632 125.745 65.856 126.849 64.464C128.001 63.024 129.345 61.92 130.881 61.152C132.417 60.384 134.409 59.592 136.857 58.776C139.449 57.912 141.345 57.12 142.545 56.4C143.745 55.68 144.345 54.672 144.345 53.376V46.968C144.345 45.432 143.961 44.064 143.193 42.864C142.425 41.664 141.105 41.064 139.233 41.064C137.745 41.064 136.401 41.472 135.201 42.288C136.833 42.864 138.033 43.728 138.801 44.88C139.617 45.984 140.025 47.232 140.025 48.624C140.025 50.496 139.353 52.008 138.009 53.16C136.713 54.264 135.129 54.816 133.257 54.816C131.385 54.816 129.897 54.24 128.793 53.088C127.737 51.888 127.209 50.376 127.209 48.552C127.209 47.112 127.569 45.864 128.289 44.808C129.009 43.752 130.137 42.792 131.673 41.928C134.361 40.392 138.201 39.624 143.193 39.624C145.833 39.624 148.113 39.888 150.033 40.416C151.953 40.896 153.585 41.832 154.929 43.224C155.889 44.232 156.513 45.504 156.801 47.04C157.137 48.528 157.305 50.616 157.305 53.304V72.6C157.305 73.8 157.377 74.616 157.521 75.048C157.713 75.48 158.025 75.696 158.457 75.696C158.793 75.696 159.153 75.6 159.537 75.408C159.921 75.168 160.281 74.904 160.617 74.616L161.337 75.84C159.273 77.616 156.321 78.504 152.481 78.504C149.601 78.504 147.585 78.024 146.433 77.064C145.281 76.056 144.657 74.712 144.561 73.032C142.305 76.68 138.945 78.504 134.481 78.504ZM141.681 72.744C142.689 72.744 143.577 72.336 144.345 71.52V56.328C143.913 57.048 143.121 57.984 141.969 59.136C140.673 60.384 139.689 61.608 139.017 62.808C138.345 63.96 138.009 65.544 138.009 67.56C138.009 71.016 139.233 72.744 141.681 72.744ZM182.523 39.624C184.491 39.624 186.291 39.84 187.923 40.272C189.603 40.656 190.971 41.16 192.027 41.784C193.371 42.552 194.427 43.584 195.195 44.88C195.963 46.176 196.347 47.64 196.347 49.272C196.347 51.288 195.699 52.968 194.403 54.312C193.107 55.608 191.451 56.256 189.435 56.256C187.371 56.256 185.739 55.68 184.539 54.528C183.387 53.328 182.811 51.744 182.811 49.776C182.811 48.048 183.363 46.536 184.467 45.24C185.619 43.896 187.035 43.008 188.715 42.576C187.995 42 187.035 41.712 185.835 41.712C182.763 41.712 180.603 43.368 179.355 46.68C178.107 49.944 177.483 53.832 177.483 58.344C177.483 62.952 178.347 66.24 180.075 68.208C181.803 70.176 183.939 71.16 186.483 71.16C189.987 71.16 192.891 69.552 195.195 66.336L196.419 66.768C195.363 70.128 193.563 73.008 191.019 75.408C188.523 77.808 185.307 79.008 181.371 79.008C176.139 79.008 171.939 77.448 168.771 74.328C165.603 71.208 164.019 66.216 164.019 59.352C164.019 52.776 165.699 47.856 169.059 44.592C172.467 41.28 176.955 39.624 182.523 39.624ZM218.734 39.624C220.702 39.624 222.502 39.84 224.134 40.272C225.814 40.656 227.182 41.16 228.238 41.784C229.582 42.552 230.638 43.584 231.406 44.88C232.174 46.176 232.558 47.64 232.558 49.272C232.558 51.288 231.91 52.968 230.614 54.312C229.318 55.608 227.662 56.256 225.646 56.256C223.582 56.256 221.95 55.68 220.75 54.528C219.598 53.328 219.022 51.744 219.022 49.776C219.022 48.048 219.574 46.536 220.678 45.24C221.83 43.896 223.246 43.008 224.926 42.576C224.206 42 223.246 41.712 222.046 41.712C218.974 41.712 216.814 43.368 215.566 46.68C214.318 49.944 213.694 53.832 213.694 58.344C213.694 62.952 214.558 66.24 216.286 68.208C218.014 70.176 220.15 71.16 222.694 71.16C226.198 71.16 229.102 69.552 231.406 66.336L232.63 66.768C231.574 70.128 229.774 73.008 227.23 75.408C224.734 77.808 221.518 79.008 217.582 79.008C212.35 79.008 208.15 77.448 204.982 74.328C201.814 71.208 200.23 66.216 200.23 59.352C200.23 52.776 201.91 47.856 205.27 44.592C208.678 41.28 213.166 39.624 218.734 39.624ZM245.873 21.696C248.369 21.696 250.289 22.224 251.633 23.28C253.025 24.336 253.721 25.872 253.721 27.888C253.721 29.904 253.025 31.44 251.633 32.496C250.289 33.552 248.369 34.08 245.873 34.08C243.329 34.08 241.385 33.552 240.041 32.496C238.697 31.44 238.025 29.904 238.025 27.888C238.025 25.872 238.697 24.336 240.041 23.28C241.385 22.224 243.329 21.696 245.873 21.696ZM252.785 71.304C252.785 73.272 253.073 74.64 253.649 75.408C254.273 76.128 255.329 76.488 256.817 76.488V78C251.633 77.808 248.225 77.712 246.593 77.712C244.961 77.712 241.361 77.808 235.793 78V76.488C237.281 76.488 238.313 76.128 238.889 75.408C239.513 74.64 239.825 73.272 239.825 71.304V48.48C239.825 46.272 239.513 44.664 238.889 43.656C238.313 42.648 237.281 42.144 235.793 42.144V40.632C237.329 40.776 238.817 40.848 240.257 40.848C245.249 40.848 249.425 40.512 252.785 39.84V71.304ZM316.342 27.024C316.006 31.536 315.838 35.568 315.838 39.12C315.838 41.328 315.91 43.056 316.054 44.304H314.398C313.246 38.736 311.47 34.752 309.07 32.352C306.718 29.904 304.078 28.68 301.15 28.68H300.214C298.918 28.68 297.958 28.8 297.334 29.04C296.758 29.232 296.35 29.64 296.11 30.264C295.918 30.84 295.822 31.824 295.822 33.216V51.648H296.542C299.038 51.648 301.174 50.664 302.95 48.696C304.726 46.728 305.854 44.544 306.334 42.144H307.99C307.846 44.16 307.774 46.416 307.774 48.912V52.368C307.774 54.816 307.918 58.224 308.206 62.592H306.55C306.118 59.856 304.99 57.6 303.166 55.824C301.39 54 299.182 53.088 296.542 53.088H295.822V69.648C295.822 71.664 296.014 73.128 296.398 74.04C296.83 74.952 297.574 75.576 298.63 75.912C299.734 76.2 301.462 76.344 303.814 76.344V78C297.334 77.856 292.39 77.784 288.982 77.784C286.726 77.784 283.582 77.832 279.55 77.928L276.094 78V76.56C277.63 76.464 278.734 76.272 279.406 75.984C280.126 75.696 280.606 75.144 280.846 74.328C281.086 73.512 281.206 72.192 281.206 70.368V34.656C281.206 32.832 281.062 31.512 280.774 30.696C280.534 29.88 280.078 29.328 279.406 29.04C278.734 28.752 277.63 28.56 276.094 28.464V27.024C281.662 27.168 290.062 27.24 301.294 27.24C308.35 27.24 313.366 27.168 316.342 27.024ZM327.419 78.504C324.347 78.504 322.019 77.688 320.435 76.056C318.899 74.376 318.131 72.288 318.131 69.792C318.131 67.632 318.683 65.856 319.787 64.464C320.939 63.024 322.283 61.92 323.819 61.152C325.355 60.384 327.347 59.592 329.795 58.776C332.387 57.912 334.283 57.12 335.483 56.4C336.683 55.68 337.283 54.672 337.283 53.376V46.968C337.283 45.432 336.899 44.064 336.131 42.864C335.363 41.664 334.043 41.064 332.171 41.064C330.683 41.064 329.339 41.472 328.139 42.288C329.771 42.864 330.971 43.728 331.739 44.88C332.555 45.984 332.963 47.232 332.963 48.624C332.963 50.496 332.291 52.008 330.947 53.16C329.651 54.264 328.067 54.816 326.195 54.816C324.323 54.816 322.835 54.24 321.731 53.088C320.675 51.888 320.147 50.376 320.147 48.552C320.147 47.112 320.507 45.864 321.227 44.808C321.947 43.752 323.075 42.792 324.611 41.928C327.299 40.392 331.139 39.624 336.131 39.624C338.771 39.624 341.051 39.888 342.971 40.416C344.891 40.896 346.523 41.832 347.867 43.224C348.827 44.232 349.451 45.504 349.739 47.04C350.075 48.528 350.243 50.616 350.243 53.304V72.6C350.243 73.8 350.315 74.616 350.459 75.048C350.651 75.48 350.963 75.696 351.395 75.696C351.731 75.696 352.091 75.6 352.475 75.408C352.859 75.168 353.219 74.904 353.555 74.616L354.275 75.84C352.211 77.616 349.259 78.504 345.419 78.504C342.539 78.504 340.523 78.024 339.371 77.064C338.219 76.056 337.595 74.712 337.499 73.032C335.243 76.68 331.883 78.504 327.419 78.504ZM334.619 72.744C335.627 72.744 336.515 72.336 337.283 71.52V56.328C336.851 57.048 336.059 57.984 334.907 59.136C333.611 60.384 332.627 61.608 331.955 62.808C331.283 63.96 330.947 65.544 330.947 67.56C330.947 71.016 332.171 72.744 334.619 72.744ZM371.429 39.624C373.301 39.624 375.053 39.84 376.685 40.272C378.365 40.656 379.637 41.088 380.501 41.568C381.029 41.856 381.461 42 381.797 42C382.805 42 383.405 41.232 383.597 39.696H385.037C384.845 42.192 384.749 46.512 384.749 52.656H383.309C382.925 49.488 382.013 46.824 380.573 44.664C379.181 42.456 377.141 41.352 374.453 41.352C373.253 41.352 372.245 41.712 371.429 42.432C370.613 43.152 370.205 44.136 370.205 45.384C370.205 46.968 370.733 48.384 371.789 49.632C372.845 50.832 374.501 52.32 376.757 54.096C376.853 54.144 377.549 54.696 378.845 55.752C381.533 57.96 383.501 59.928 384.749 61.656C385.997 63.336 386.621 65.424 386.621 67.92C386.621 70.032 385.973 71.952 384.677 73.68C383.381 75.36 381.605 76.68 379.349 77.64C377.141 78.552 374.717 79.008 372.077 79.008C369.053 79.008 366.581 78.408 364.661 77.208C363.845 76.776 363.173 76.464 362.645 76.272C362.117 76.08 361.589 75.984 361.061 75.984C360.149 75.984 359.477 76.824 359.045 78.504H357.605C357.797 75.768 357.893 70.968 357.893 64.104H359.333C359.765 68.04 360.821 71.208 362.501 73.608C364.181 76.008 366.293 77.208 368.837 77.208C370.037 77.208 371.021 76.872 371.789 76.2C372.605 75.528 373.013 74.544 373.013 73.248C373.013 71.904 372.725 70.704 372.149 69.648C371.621 68.592 370.949 67.656 370.133 66.84C369.365 65.976 368.093 64.752 366.317 63.168C364.301 61.296 362.765 59.808 361.709 58.704C360.653 57.6 359.741 56.328 358.973 54.888C358.253 53.4 357.893 51.768 357.893 49.992C357.893 47.928 358.517 46.104 359.765 44.52C361.013 42.936 362.669 41.736 364.733 40.92C366.797 40.056 369.029 39.624 371.429 39.624ZM407.046 45.024C409.206 41.424 413.022 39.624 418.494 39.624C422.334 39.624 425.046 40.584 426.63 42.504C427.35 43.368 427.878 44.544 428.214 46.032C428.55 47.472 428.718 49.392 428.718 51.792V71.304C428.718 73.272 429.006 74.64 429.582 75.408C430.206 76.128 431.262 76.488 432.75 76.488V78C427.566 77.808 424.206 77.712 422.67 77.712C421.038 77.712 417.63 77.808 412.446 78V76.488C413.694 76.488 414.558 76.128 415.038 75.408C415.518 74.64 415.758 73.272 415.758 71.304V47.904C415.758 46.368 415.47 45.24 414.894 44.52C414.366 43.752 413.478 43.368 412.23 43.368C410.838 43.368 409.614 43.872 408.558 44.88C407.55 45.84 407.046 47.064 407.046 48.552V71.304C407.046 73.272 407.286 74.64 407.766 75.408C408.246 76.128 409.11 76.488 410.358 76.488V78C405.558 77.808 402.39 77.712 400.854 77.712C399.222 77.712 395.622 77.808 390.054 78V76.488C391.542 76.488 392.574 76.128 393.15 75.408C393.774 74.64 394.086 73.272 394.086 71.304V30.336C394.086 28.128 393.774 26.52 393.15 25.512C392.574 24.504 391.542 24 390.054 24V22.488C391.542 22.632 393.03 22.704 394.518 22.704C399.51 22.704 403.686 22.368 407.046 21.696V45.024ZM445.139 21.696C447.635 21.696 449.555 22.224 450.899 23.28C452.291 24.336 452.987 25.872 452.987 27.888C452.987 29.904 452.291 31.44 450.899 32.496C449.555 33.552 447.635 34.08 445.139 34.08C442.595 34.08 440.651 33.552 439.307 32.496C437.963 31.44 437.291 29.904 437.291 27.888C437.291 25.872 437.963 24.336 439.307 23.28C440.651 22.224 442.595 21.696 445.139 21.696ZM452.051 71.304C452.051 73.272 452.339 74.64 452.915 75.408C453.539 76.128 454.595 76.488 456.083 76.488V78C450.899 77.808 447.491 77.712 445.859 77.712C444.227 77.712 440.627 77.808 435.059 78V76.488C436.547 76.488 437.579 76.128 438.155 75.408C438.779 74.64 439.091 73.272 439.091 71.304V48.48C439.091 46.272 438.779 44.664 438.155 43.656C437.579 42.648 436.547 42.144 435.059 42.144V40.632C436.595 40.776 438.083 40.848 439.523 40.848C444.515 40.848 448.691 40.512 452.051 39.84V71.304ZM478.049 39.624C483.953 39.624 488.513 41.184 491.729 44.304C494.945 47.376 496.553 52.392 496.553 59.352C496.553 66.312 494.945 71.328 491.729 74.4C488.513 77.472 483.953 79.008 478.049 79.008C472.145 79.008 467.585 77.472 464.369 74.4C461.153 71.328 459.545 66.312 459.545 59.352C459.545 52.392 461.153 47.376 464.369 44.304C467.585 41.184 472.145 39.624 478.049 39.624ZM478.049 41.064C476.513 41.064 475.289 42.576 474.377 45.6C473.465 48.624 473.009 53.208 473.009 59.352C473.009 65.496 473.465 70.08 474.377 73.104C475.289 76.08 476.513 77.568 478.049 77.568C479.585 77.568 480.809 76.08 481.721 73.104C482.633 70.08 483.089 65.496 483.089 59.352C483.089 53.208 482.633 48.624 481.721 45.6C480.809 42.576 479.585 41.064 478.049 41.064ZM528.749 39.624C532.589 39.624 535.301 40.584 536.885 42.504C537.605 43.368 538.133 44.544 538.469 46.032C538.805 47.472 538.973 49.392 538.973 51.792V71.304C538.973 73.272 539.261 74.64 539.837 75.408C540.461 76.128 541.517 76.488 543.005 76.488V78C537.821 77.808 534.461 77.712 532.925 77.712C531.293 77.712 527.885 77.808 522.701 78V76.488C523.949 76.488 524.813 76.128 525.293 75.408C525.773 74.64 526.013 73.272 526.013 71.304V47.904C526.013 46.368 525.725 45.24 525.149 44.52C524.621 43.752 523.733 43.368 522.485 43.368C521.093 43.368 519.869 43.872 518.813 44.88C517.805 45.84 517.301 47.064 517.301 48.552V71.304C517.301 73.272 517.541 74.64 518.021 75.408C518.501 76.128 519.365 76.488 520.613 76.488V78C515.813 77.808 512.645 77.712 511.109 77.712C509.477 77.712 505.877 77.808 500.309 78V76.488C501.797 76.488 502.829 76.128 503.405 75.408C504.029 74.64 504.341 73.272 504.341 71.304V48.48C504.341 46.272 504.029 44.664 503.405 43.656C502.829 42.648 501.797 42.144 500.309 42.144V40.632C501.845 40.776 503.333 40.848 504.773 40.848C509.765 40.848 513.941 40.512 517.301 39.84V45.024C519.461 41.424 523.277 39.624 528.749 39.624Z" fill="#E17979"/>
</svg>
